HIERARCHY
ROOT Hips
{
    OFFSET   0.000000   0.000000   0.000000
    CHANNELS 6 Xposition Yposition Zposition Zrotation Xrotation Yrotation
    JOINT Chest
    {
        OFFSET   0.000000   8.007240   0.000000
        CHANNELS 3 Zrotation Xrotation Yrotation
        JOINT Chest2
        {
            OFFSET   0.000000  22.077100   0.000000
            CHANNELS 3 Zrotation Xrotation Yrotation
            JOINT Neck
            {
                OFFSET   0.000000  23.254800   0.000000
                CHANNELS 3 Zrotation Xrotation Yrotation
                JOINT Head
                {
                    OFFSET   0.000000  14.370000   1.956600
                    CHANNELS 3 Zrotation Xrotation Yrotation
                    End Site
                    {
                        OFFSET   0.000000  19.566000   0.000000
                    }
                }
            }
            JOINT LeftCollar
            {
                OFFSET   3.911900  19.017000  -0.467064
                CHANNELS 3 Zrotation Xrotation Yrotation
                JOINT LeftShoulder
                {
                    OFFSET  10.383700   0.000000   0.000000
                    CHANNELS 3 Zrotation Xrotation Yrotation
                    JOINT LeftElbow
                    {
                        OFFSET  26.662100   0.001476   0.000517
                        CHANNELS 3 Zrotation Xrotation Yrotation
                        JOINT LeftWrist
                        {
                            OFFSET  28.869000  -0.000025  -0.000106
                            CHANNELS 3 Zrotation Xrotation Yrotation
                            JOINT LeftFinger0
                            {
                                OFFSET   2.044660  -2.323460   3.252850
                                CHANNELS 3 Zrotation Xrotation Yrotation
                                JOINT LeftFinger01
                                {
                                    OFFSET   3.088130   0.000000   0.000000
                                    CHANNELS 3 Zrotation Xrotation Yrotation
                                    JOINT LeftFinger02
                                    {
                                        OFFSET   2.639460   0.000000   0.000000
                                        CHANNELS 3 Zrotation Xrotation Yrotation
                                        End Site
                                        {
                                            OFFSET   2.582190   0.000000   0.000000
                                        }
                                    }
                                }
                            }
                            JOINT LeftFinger1
                            {
                                OFFSET   8.364480   0.000000   3.252850
                                CHANNELS 3 Zrotation Xrotation Yrotation
                                JOINT LeftFinger11
                                {
                                    OFFSET   4.646930   0.000000   0.000000
                                    CHANNELS 3 Zrotation Xrotation Yrotation
                                    JOINT LeftFinger12
                                    {
                                        OFFSET   2.323460   0.000000   0.000000
                                        CHANNELS 3 Zrotation Xrotation Yrotation
                                        End Site
                                        {
                                            OFFSET   2.273050   0.000000   0.000000
                                        }
                                    }
                                }
                            }
                            JOINT LeftFinger2
                            {
                                OFFSET   8.364490   0.000015   1.078090
                                CHANNELS 3 Zrotation Xrotation Yrotation
                                JOINT LeftFinger21
                                {
                                    OFFSET   5.111620   0.000000   0.000000
                                    CHANNELS 3 Zrotation Xrotation Yrotation
                                    JOINT LeftFinger22
                                    {
                                        OFFSET   2.788160   0.000016   0.000000
                                        CHANNELS 3 Zrotation Xrotation Yrotation
                                        End Site
                                        {
                                            OFFSET   2.727660   0.000000   0.000000
                                        }
                                    }
                                }
                            }
                            JOINT LeftFinger3
                            {
                                OFFSET   7.899780   0.000017  -1.078090
                                CHANNELS 3 Zrotation Xrotation Yrotation
                                JOINT LeftFinger31
                                {
                                    OFFSET   4.646930   0.000000   0.000000
                                    CHANNELS 3 Zrotation Xrotation Yrotation
                                    JOINT LeftFinger32
                                    {
                                        OFFSET   2.323470   0.000000   0.000000
                                        CHANNELS 3 Zrotation Xrotation Yrotation
                                        End Site
                                        {
                                            OFFSET   2.273050   0.000000   0.000000
                                        }
                                    }
                                }
                            }
                            JOINT LeftFinger4
                            {
                                OFFSET   7.435090   0.000000  -3.252850
                                CHANNELS 3 Zrotation Xrotation Yrotation
                                JOINT LeftFinger41
                                {
                                    OFFSET   3.717550   0.000000   0.000000
                                    CHANNELS 3 Zrotation Xrotation Yrotation
                                    JOINT LeftFinger42
                                    {
                                        OFFSET   1.858770   0.000000   0.000000
                                        CHANNELS 3 Zrotation Xrotation Yrotation
                                        End Site
                                        {
                                            OFFSET   1.818440   0.000000   0.000000
                                        }
                                    }
                                }
                            }
                        }
                    }
                }
            }
            JOINT RightCollar
            {
                OFFSET  -3.911900  19.017000  -0.467063
                CHANNELS 3 Zrotation Xrotation Yrotation
                JOINT RightShoulder
                {
                    OFFSET -10.383700   0.000019   0.000000
                    CHANNELS 3 Zrotation Xrotation Yrotation
                    JOINT RightElbow
                    {
                        OFFSET -26.662100   0.001175   0.000102
                        CHANNELS 3 Zrotation Xrotation Yrotation
                        JOINT RightWrist
                        {
                            OFFSET -28.869000   0.000016  -0.000079
                            CHANNELS 3 Zrotation Xrotation Yrotation
                            JOINT RightFinger0
                            {
                                OFFSET  -2.044660  -2.323490   3.252850
                                CHANNELS 3 Zrotation Xrotation Yrotation
                                JOINT RightFinger01
                                {
                                    OFFSET  -3.088140   0.000000   0.000000
                                    CHANNELS 3 Zrotation Xrotation Yrotation
                                    JOINT RightFinger02
                                    {
                                        OFFSET  -2.639460   0.000000   0.000000
                                        CHANNELS 3 Zrotation Xrotation Yrotation
                                        End Site
                                        {
                                            OFFSET  -2.582190   0.000000   0.000000
                                        }
                                    }
                                }
                            }
                            JOINT RightFinger1
                            {
                                OFFSET  -8.364480   0.000000   3.252850
                                CHANNELS 3 Zrotation Xrotation Yrotation
                                JOINT RightFinger11
                                {
                                    OFFSET  -4.646930   0.000000   0.000000
                                    CHANNELS 3 Zrotation Xrotation Yrotation
                                    JOINT RightFinger12
                                    {
                                        OFFSET  -2.323470   0.000000   0.000000
                                        CHANNELS 3 Zrotation Xrotation Yrotation
                                        End Site
                                        {
                                            OFFSET  -2.273050   0.000000   0.000000
                                        }
                                    }
                                }
                            }
                            JOINT RightFinger2
                            {
                                OFFSET  -8.364480   0.000000   1.078090
                                CHANNELS 3 Zrotation Xrotation Yrotation
                                JOINT RightFinger21
                                {
                                    OFFSET  -5.111620   0.000000   0.000000
                                    CHANNELS 3 Zrotation Xrotation Yrotation
                                    JOINT RightFinger22
                                    {
                                        OFFSET  -2.788160   0.000000   0.000000
                                        CHANNELS 3 Zrotation Xrotation Yrotation
                                        End Site
                                        {
                                            OFFSET  -2.727660   0.000000   0.000000
                                        }
                                    }
                                }
                            }
                            JOINT RightFinger3
                            {
                                OFFSET  -7.899780   0.000000  -1.078090
                                CHANNELS 3 Zrotation Xrotation Yrotation
                                JOINT RightFinger31
                                {
                                    OFFSET  -4.646930   0.000000   0.000000
                                    CHANNELS 3 Zrotation Xrotation Yrotation
                                    JOINT RightFinger32
                                    {
                                        OFFSET  -2.323470   0.000000   0.000000
                                        CHANNELS 3 Zrotation Xrotation Yrotation
                                        End Site
                                        {
                                            OFFSET  -2.273050   0.000000   0.000000
                                        }
                                    }
                                }
                            }
                            JOINT RightFinger4
                            {
                                OFFSET  -7.435090   0.000000  -3.252850
                                CHANNELS 3 Zrotation Xrotation Yrotation
                                JOINT RightFinger41
                                {
                                    OFFSET  -3.717550   0.000000   0.000000
                                    CHANNELS 3 Zrotation Xrotation Yrotation
                                    JOINT RightFinger42
                                    {
                                        OFFSET  -1.858770   0.000000   0.000000
                                        CHANNELS 3 Zrotation Xrotation Yrotation
                                        End Site
                                        {
                                            OFFSET  -1.818440   0.000000   0.000000
                                        }
                                    }
                                }
                            }
                        }
                    }
                }
            }
        }
    }
    JOINT LeftHip
    {
        OFFSET   9.783040   0.000000   0.000000
        CHANNELS 3 Zrotation Xrotation Yrotation
        JOINT LeftKnee
        {
            OFFSET   0.000032 -41.789100  -0.002222
            CHANNELS 3 Zrotation Xrotation Yrotation
            JOINT LeftAnkle
            {
                OFFSET   0.000087 -41.133200  -0.000135
                CHANNELS 3 Zrotation Xrotation Yrotation
                JOINT LeftToe
                {
                    OFFSET   0.000000  -6.358960  14.674500
                    CHANNELS 3 Zrotation Xrotation Yrotation
                    End Site
                    {
                        OFFSET   0.000000   0.000000   3.913200
                    }
                }
            }
        }
    }
    JOINT RightHip
    {
        OFFSET  -9.783040   0.000000   0.000000
        CHANNELS 3 Zrotation Xrotation Yrotation
        JOINT RightKnee
        {
            OFFSET   0.000047 -41.789100  -0.000896
            CHANNELS 3 Zrotation Xrotation Yrotation
            JOINT RightAnkle
            {
                OFFSET  -0.000117 -41.133300  -0.000248
                CHANNELS 3 Zrotation Xrotation Yrotation
                JOINT RightToe
                {
                    OFFSET   0.000000  -6.358970  14.674500
                    CHANNELS 3 Zrotation Xrotation Yrotation
                    End Site
                    {
                        OFFSET   0.000000   0.000000   3.913200
                    }
                }
            }
        }
    }
}
MOTION
Frames: 5
Frame Time:   0.016667
  4.677110  88.477400   1.343040  -5.995560 -19.309300  -6.690770  -1.768050  10.585600   0.084087  -3.648320  21.163300   0.520922  -2.719890  -3.236890   2.187610  -4.770870  -6.330120  46.567300  -2.433740   2.299560  -1.061650 -67.086700  13.200700  -7.721330  -5.029190 -14.094100 -12.867600   1.605830   1.046720   7.010630  38.078800  26.315500 -67.591300  -9.498830   0.001521   0.004567   0.250577   0.000887  -0.003277 -31.298700   4.256160  -6.958040 -25.819600   0.007561   0.001466 -18.073700   0.002719  -0.004614 -28.412800   0.378426  -0.699494 -35.262000   0.005973   0.001470 -23.484500   0.000713  -0.001603 -28.215400  -2.502450   4.652300 -34.359600   0.000840  -0.001026 -22.883500   0.005145  -0.001765 -32.867200  -2.871900   4.434060 -49.467500   0.003807  -0.000324 -32.945400  -0.000163   0.000056  -5.147300  -5.269910   0.675745  32.159000 -27.754700  61.662500 -33.714900 -41.740400  90.293400  25.789000  28.180100  13.905700 -59.040400  54.333300 108.293000 -15.755000  -0.003056  -0.006014 -12.877500   0.010810   0.003046   3.342620  -0.297437  -5.123430   2.746070   0.002910  -0.002111   1.922250  -0.000082  -0.002606   8.278470  -1.129620  -7.757210   8.355550   0.002505  -0.002104   5.564800   0.000317  -0.003896   7.897990  -1.949820 -13.780800   8.133650  -0.000180  -0.002725   5.417010  -0.001561  -0.002521  11.161500  -4.066430 -19.797800  17.809000  -0.000189  -0.000220  11.860800  -0.000108  -0.004641   0.956187  23.646300   6.633670  -0.683067   0.332940  11.524800   0.545213  -5.395650   7.183380  -0.000000   0.000000  -0.000000  -1.232110   7.783800  -5.237510  -0.357929  24.501100  -3.654950   0.719349 -11.086000   2.823990  -0.000000   0.000000   0.000000
  4.645810  88.478400   1.344040  -5.995510 -19.283300  -6.691610  -1.765330  10.566100   0.089027  -3.643300  21.124100   0.529784  -2.704140  -3.217570   2.158820  -4.739360  -6.295510  46.545100  -2.433150   2.306110  -1.080350 -67.103600  13.179900  -7.689060  -5.026800 -14.074600 -12.873600   1.619130   1.027490   6.997730  38.089300  26.312300 -67.578000  -9.495670   0.001444   0.004499   0.252160   0.000850  -0.003127 -31.291700   4.254010  -6.958050 -25.814000   0.007753   0.001417 -18.069800   0.002837  -0.004591 -28.404500   0.387142  -0.715856 -35.179500   0.006214   0.001430 -23.429600   0.000654  -0.001526 -28.211000  -2.497460   4.643910 -34.317500   0.000857  -0.000989 -22.855500   0.005158  -0.001692 -32.818300  -2.862730   4.428370 -49.393400   0.003668  -0.000230 -32.896000  -0.000138   0.000111  -5.151580  -5.300910   0.650278  32.133400 -27.735000  61.630500 -33.607400 -41.652300  90.117400  25.607400  28.646700  13.874800 -59.040400  54.333300 108.293000 -15.811300  -0.003039  -0.006076 -12.905600   0.010959   0.002935   3.427530  -0.300758  -5.018940   2.815320   0.002853  -0.002105   1.970720  -0.000064  -0.002571   8.341680  -1.129390  -7.658030   8.417440   0.002596  -0.002146   5.606020   0.000344  -0.003944   7.948140  -1.961180 -13.772400   8.185030  -0.000119  -0.002807   5.451230  -0.001515  -0.002574  11.226200  -4.068350 -19.670600  17.898000  -0.000169  -0.000246  11.920100  -0.000083  -0.004715   0.968048  23.658100   6.641030  -0.670297   0.300434  11.526600   0.532727  -5.386840   7.173620  -0.000000   0.000000   0.000000  -1.213170   7.773760  -5.245360  -0.350172  24.481700  -3.651900   0.701469 -11.081600   2.819470  -0.000000   0.000000   0.000000
  4.614240  88.479200   1.346470  -5.990740 -19.259200  -6.683240  -1.762080  10.546900   0.092193  -3.636750  21.085700   0.534505  -2.692350  -3.197030   2.123230  -4.713710  -6.258460  46.515700  -2.433110   2.308780  -1.094890 -67.118100  13.139500  -7.662760  -5.017120 -14.041400 -12.872000   1.663840   1.003320   6.989810  38.110700  26.326100 -67.575200  -9.489980   0.001373   0.004415   0.255005   0.000820  -0.002987 -31.288600   4.249210  -6.953060 -25.811100   0.007943   0.001364 -18.067800   0.002955  -0.004567 -28.399800   0.393550  -0.727869 -35.134800   0.006452   0.001389 -23.399800   0.000594  -0.001452 -28.209400  -2.495600   4.640710 -34.302000   0.000872  -0.000949 -22.845100   0.005172  -0.001619 -32.794000  -2.859480   4.426070 -49.356500   0.003528  -0.000113 -32.871400  -0.000103   0.000147  -5.152150  -5.334150   0.633474  32.085900 -27.725000  61.560300 -33.561400 -41.626300  89.976800  25.605700  28.885900  13.829000 -59.040400  54.333300 108.293000 -15.860900  -0.003013  -0.006148 -12.930400   0.011093   0.002832   3.405610  -0.291277  -4.854900   2.796520   0.002814  -0.002099   1.957550  -0.000026  -0.002548   8.329510  -1.112960  -7.532900   8.402560   0.002680  -0.002193   5.596110   0.000383  -0.003990   7.918300  -1.954470 -13.777300   8.154470  -0.000060  -0.002899   5.430880  -0.001456  -0.002627  11.212400  -4.041710 -19.550500  17.861700  -0.000141  -0.000282  11.895900  -0.000033  -0.004798   0.980881  23.634300   6.650600  -0.652487   0.317195  11.518400   0.514035  -5.390230   7.164130   0.000000   0.000000  -0.000000  -1.190560   7.759870  -5.260280  -0.348851  24.458100  -3.649970   0.688276 -11.075200   2.812980   0.000000   0.000000   0.000000
  4.581270  88.480900   1.350300  -5.983460 -19.234000  -6.667000  -1.757780  10.527400   0.093450  -3.627930  21.046700   0.535928  -2.682350  -3.178160   2.086210  -4.691080  -6.224570  46.484300  -2.433180   2.309670  -1.108560 -67.128400  13.095400  -7.644850  -5.002590 -14.004900 -12.869900   1.726510   0.972751   6.984080  38.142300  26.352000 -67.575500  -9.467870   0.001303   0.004334   0.266062   0.000790  -0.002848 -31.279600   4.245810  -6.948090 -25.803400   0.008132   0.001311 -18.062400   0.003072  -0.004540 -28.395200   0.406165  -0.751359 -35.093500   0.006689   0.001346 -23.372300   0.000533  -0.001378 -28.207500  -2.492960   4.636230 -34.285400   0.000888  -0.000908 -22.834000   0.005184  -0.001545 -32.771300  -2.854320   4.423190 -49.322400   0.003390   0.000000 -32.848700  -0.000065   0.000187  -5.148400  -5.362410   0.625341  32.032000 -27.723000  61.468300 -33.552800 -41.622400  89.909700  25.645900  28.950900  13.799500 -59.040400  54.333300 108.293000 -15.906400  -0.002987  -0.006220 -12.953200   0.011225   0.002730   3.348590  -0.273926  -4.665860   2.748810   0.002780  -0.002092   1.924150   0.000000  -0.002528   8.302670  -1.085510  -7.395570   8.372750   0.002763  -0.002242   5.576240   0.000421  -0.004037   7.870440  -1.943700 -13.785600   8.105440   0.000000  -0.002990   5.398220  -0.001394  -0.002679  11.184000  -3.996890 -19.418800  17.802000  -0.000112  -0.000318  11.856100   0.000000  -0.004878   1.000390  23.601300   6.656020  -0.640454   0.333968  11.500500   0.493224  -5.394860   7.155760  -0.000000   0.000000   0.000000  -1.164330   7.750710  -5.275380  -0.348949  24.430000  -3.648980   0.675139 -11.067500   2.801000  -0.000000   0.000000   0.000000
  4.544670  88.484900   1.356490  -5.978880 -19.207900  -6.646440  -1.751390  10.507400   0.092739  -3.614350  21.006700   0.532877  -2.672500  -3.163850   2.052410  -4.669590  -6.199370  46.455200  -2.432770   2.310920  -1.126080 -67.134200  13.055400  -7.637650  -4.981550 -13.971100 -12.857500   1.797940   0.932243   6.977170  38.209100  26.402900 -67.573500  -9.387100   0.001232   0.004272   0.306449   0.000755  -0.002703 -31.240400   4.253660  -6.970080 -25.772400   0.008321   0.001262 -18.040700   0.003188  -0.004511 -28.384800   0.447050  -0.827375 -34.999900   0.006928   0.001301 -23.309900   0.000470  -0.001300 -28.202200  -2.466810   4.588950 -34.223100   0.000906  -0.000870 -22.792500   0.005194  -0.001468 -32.713200  -2.819860   4.381130 -49.231900   0.003255   0.000080 -32.788400  -0.000024   0.000259  -5.137360  -5.379300   0.623852  31.999200 -27.725400  61.380400 -33.537200 -41.631500  89.926000  25.686500  28.855500  13.793700 -59.040400  54.333300 108.293000 -15.944700  -0.002970  -0.006288 -12.972400   0.011368   0.002627   3.231460  -0.253223  -4.479320   2.651970   0.002740  -0.002086   1.856380   0.000000  -0.002500   8.260480  -1.058990  -7.259290   8.327860   0.002844  -0.002291   5.546350   0.000441  -0.004085   7.828130  -1.934160 -13.794100   8.062130   0.000068  -0.003068   5.369370  -0.001338  -0.002725  11.156300  -3.954300 -19.265700  17.744500  -0.000089  -0.000348  11.817800   0.000000  -0.004940   1.034720  23.590800   6.653980  -0.642282   0.326111  11.474900   0.472607  -5.396220   7.151070   0.000000   0.000000   0.000000  -1.131570   7.751070  -5.285710  -0.347772  24.389600  -3.649370   0.658762 -11.058200   2.776550  -0.000000   0.000000   0.000000
